# xmcd
#
# Track frame offsets:
# 150
# 17340
# 35904
# 48407
# 61705
# 74784
# 90673
# 107836
# 124802
# 139427
# 154842
# 167152
# 179375
# 190523
# 202049
# 216618
# 232010
# 240623
#
# Disc length: 3490 seconds
#
#
# Revision: 0
# Processed by: cddbd v1.5.1PL2 Copyright (c) Steve Scherf et al.
# Submitted via: FreeRIP 2.942 
#
DISCID=100da012
DTITLE=Wellington e Wennig - Bailão - Ao Vivo
DYEAR=2006
DGENRE=
TTITLE0=Estou Mal
TTITLE1=Cabra Bom Não Bebe Água
TTITLE2=O Que Acontece?
TTITLE3=Anel do Eno
TTITLE4=Melô do Corno
TTITLE5=Porque Brigamos
TTITLE6=Zoando e Tomando Mé
TTITLE7=Zé da Égua
TTITLE8=Cuida do Nosso Amor
TTITLE9=Tic Bom
TTITLE10=Pode Tocar
TTITLE11=Kit Puta
TTITLE12=Homem Galinha
TTITLE13=Balança Brasil
TTITLE14=O Bebum
TTITLE15=Passe a Mão No Rabo Dela
TTITLE16=Meu Mato Grosso
TTITLE17=Falta Você
EXTD=
EXTT0=
EXTT1=
EXTT2=
EXTT3=
EXTT4=
EXTT5=
EXTT6=
EXTT7=
EXTT8=
EXTT9=
EXTT10=
EXTT11=
EXTT12=
EXTT13=
EXTT14=
EXTT15=
EXTT16=
EXTT17=
PLAYORDER=
